<?xml version="1.0" encoding="UTF-8"?>
<svg xmlns:xlink="http://www.w3.org/1999/xlink"  xmlns="http://www.w3.org/2000/svg" viewBox="0 0 500 500">
  <defs>
    <style>
      .cls-1 {
        fill: #666;
      }

      .cls-1, .cls-2, .cls-3, .cls-4, .cls-5, .cls-6, .cls-7, .cls-8, .cls-9, .cls-10, .cls-11, .cls-12, .cls-13, .cls-14, .cls-15, .cls-16, .cls-17, .cls-18, .cls-19, .cls-20, .cls-21, .cls-22, .cls-23, .cls-24 {
        stroke-width: 0px;
      }

      .cls-25 {
        stroke-linejoin: round;
      }

      .cls-25, .cls-26, .cls-13, .cls-27 {
        fill: none;
      }

      .cls-25, .cls-26, .cls-27 {
        stroke: #110331;
        stroke-linecap: round;
      }

      .cls-2 {
        fill: #f7bb64;
      }

      .cls-3 {
        fill: #2b2021;
      }

      .cls-4 {
        fill: #a0663c;
      }

      .cls-5 {
        fill: #5faeef;
      }

      .cls-6 {
        fill: #6d2d32;
      }

      .cls-7 {
        fill: #505050;
      }

      .cls-26, .cls-27 {
        stroke-miterlimit: 10;
      }

      .cls-8 {
        fill: #342e2e;
      }

      .cls-9 {
        fill: #eebb72;
      }

      .cls-10 {
        fill: #dda576;
      }

      .cls-11 {
        fill: #110331;
      }

      .cls-12 {
        fill: #a34f55;
      }

      .cls-14 {
        fill: #7a1629;
      }

      .cls-15 {
        fill: #fcce4c;
      }

      .cls-16 {
        fill: #fff;
      }

      .cls-17 {
        fill: #3f71a7;
      }

      .cls-18 {
        fill: #cc3636;
      }

      .cls-19 {
        fill: #c18733;
      }

      .cls-20 {
        fill: #a76d38;
      }

      .cls-21 {
        fill: #3d3837;
      }

      .cls-22 {
        fill: #f38992;
      }

      .cls-27 {
        stroke-width: 3px;
      }

      .cls-23 {
        fill: #ac968c;
      }

      .cls-24 {
        fill: #d2d2dc;
      }
    </style>
  </defs>
  <g id="Layer_3" data-name="Layer 3">
    <path class="cls-7" d="m89.27,246.75s.9,11.52-7.47,26.35-9.5,44.41,6.47,61.38l.18,22.21s-6.94.24-6.64,12.24,20.24,12.59,28.38,4.55c3.25-3.21,1.62-22.44,1.62-22.44l12.67,4.73.18,3.07s-7.51,1.09-6.53,11.92,11.96,11.25,17.75,9.88,8.24-1.8,10.65-5.25,1.48-16.29,1.48-16.29l8.31,1.93s3.53,7.93,16.16,13.5,150.48,3.85,150.48,3.85c0,0,21.59-3.85,29.39-18.32s7.45-17.11,7.45-17.11l.54,13.73s-6.31,2.05-6.41,7.04.14,10.95,3.74,12.81,22.39,4.5,24.34-2.02c1.77-5.93.58-28.76.58-28.76l13.83,5.26.13,7.81s-8.03,2.65-6.56,11.62,6.56,9.78,6.56,9.78c0,0,19.84,2.87,22.21-5.64s-2.84-21.25,2.1-29.96,23.37-20.71,26.32-45.38-8.01-40.11-8.01-40.11c0,0,10.92-10.73,13.42-21.3,4.71-19.93-3.94-32.13-3.94-32.13,0,0-1.94,23.87-10.75,31.48s-11.82,9.56-11.82,9.56c0,0-9.11-7.28-22.48-9.77-15.73-2.93-35.85,6.23-35.85,6.23,0,0-12.61-11.07-21.12-12.25s-138.99-1.22-138.99-1.22l-16.61,4.87-9.22,14.2-60.96-25.11-31.54,23.02Z"/>
    <path class="cls-2" d="m124.29,337.65s-19.19-13.05-16.36-38.72,15.69-51.5,15.69-51.5l-13.65-3.1-9.49-.78-11.21,3.19s.87,12.02-3.6,19.75-14.69,22.73-8.96,43.42,18.78,31.4,18.78,31.4c0,0,13.83,9.13,19.02,10.89s9.97,3.55,9.97,3.55l-.18-18.12Z"/>
    <path class="cls-2" d="m396.39,351.04s-11.9-5.53-19.74-6.68-17.3-1.47-17.3-1.47c0,0,1.14-9.62,0-14.53s-2.36-5.71-2.36-5.71c0,0,8.22.44,15.22,2.44s24.31,12.55,24.31,12.55l-.13,13.39Z"/>
    <rect class="cls-10" x="148" y="292.43" width="211.97" height="86.39" rx="43.2" ry="43.2"/>
    <path class="cls-10" d="m190.99,234.64s4.75-3.78,13.01-4.32,132.15-1.17,135.93-.55,20.21,3.1,27.77,13.47c0,0-16.03,7.15-19.45,8.17s-7.48,2.12-7.48,2.12c0,0-1.45-4.62-7.9-4.17s-14.45,8.9-14.45,8.9l-22.45,1.96s-2.04-4-6.33-4.33c-4.29-.33-11.49,6.22-11.49,6.22l-19.06.74s.27-5.16-3.29-5.95c-6.74-1.5-16.71,8.32-16.71,8.32l-27.63,1.1s-.77-4.61-8.35-5.82-14.75,3.69-14.75,3.69l-7.99-2.02s-.53-10.35,2.77-15.43l7.85-12.09Z"/>
    <path class="cls-15" d="m262.85,292.43s6.67-5.58,10.58-13c3.92-7.42,8.42-12.33,12.42-11.83s.14,20.5,10.75,22.06c10.61,1.56,22.28-28,29.83-25s-1.17,13.94,5.33,21.11,25.5,4.67,29.17-3.67-.04-11-.97-11-11.98,12.67-17.09,6.44,4.67-28.32-8.67-28.27-26.11,24.38-34.56,25.94,2-20-11.11-19.11-23.89,29.89-31.22,27.67,9.33-25.89-2.78-27.11-32.06,30.83-41.06,26.5c-9-4.33,5.72-17.72-7.83-21.72s-24.26,9.4-24.26,9.4l3.18,11.93s9.25-14.08,13.64-12.56c8.33,2.9-.53,22.22-.53,22.22h23.08s10.29-7.55,13.81-11.23,10.19-12.02,13.11-11.02-.94,12.11-1.64,14.9-.36,6.93-.36,6.93l17.17.42Z"/>
    <g>
      <path class="cls-4" d="m185.71,351.21s-2.28,2.21-2.93,3.56c-.65,1.35-1.16,3.55,1.09,4.18,2.25.64,3.41-1,3.28-2.82s-1.44-4.93-1.44-4.93Z"/>
      <path class="cls-4" d="m205.87,330.74s.05,3.18.59,4.58c.54,1.4,1.79,3.27,3.8,2.07,2.01-1.2,1.6-3.17.19-4.32s-4.58-2.32-4.58-2.32Z"/>
      <path class="cls-4" d="m186.19,328.03s-3.02-.98-4.52-.93c-1.5.05-3.68.63-3.19,2.92.49,2.29,2.48,2.55,4.02,1.59s3.69-3.58,3.69-3.58Z"/>
      <path class="cls-4" d="m211.58,316.89s3.16-.36,4.5-1.04c1.34-.67,3.08-2.1,1.68-3.98-1.4-1.88-3.31-1.28-4.32.23s-1.86,4.79-1.86,4.79Z"/>
      <path class="cls-4" d="m242.93,319.46s.57-3.13.31-4.6c-.26-1.48-1.12-3.56-3.32-2.76-2.2.79-2.19,2.8-1.03,4.2s4.04,3.17,4.04,3.17Z"/>
      <path class="cls-4" d="m231.89,343.09s-1.08,2.99-1.07,4.49c0,1.5.52,3.69,2.82,3.28,2.3-.42,2.62-2.4,1.71-3.97s-3.46-3.79-3.46-3.79Z"/>
      <path class="cls-4" d="m327.06,354.01s-2.28,2.21-2.93,3.56c-.65,1.35-1.16,3.55,1.09,4.18,2.25.64,3.41-1,3.28-2.82s-1.44-4.93-1.44-4.93Z"/>
      <path class="cls-4" d="m264.58,301.68s.63,3.12,1.41,4.39c.78,1.28,2.35,2.89,4.11,1.35,1.76-1.55,1-3.41-.59-4.29s-4.93-1.45-4.93-1.45Z"/>
      <path class="cls-4" d="m249.34,335.49s3.1.7,4.59.5c1.49-.19,3.6-.97,2.9-3.21-.7-2.23-2.71-2.3-4.16-1.2s-3.33,3.91-3.33,3.91Z"/>
      <path class="cls-4" d="m304.65,313.99s-1.9-2.55-3.15-3.37c-1.25-.82-3.36-1.61-4.29.54-.93,2.15.55,3.51,2.36,3.62s5.08-.79,5.08-.79Z"/>
      <path class="cls-4" d="m270.24,345.65s.17-3.17-.27-4.61c-.44-1.43-1.56-3.39-3.64-2.33-2.09,1.06-1.82,3.05-.49,4.3s4.41,2.64,4.41,2.64Z"/>
      <path class="cls-4" d="m297.25,339.98s3.17.23,4.61-.18c1.44-.41,3.42-1.49,2.4-3.6-1.02-2.11-3.01-1.88-4.29-.58s-2.73,4.35-2.73,4.35Z"/>
      <path class="cls-4" d="m331.32,312.46s-2.28,2.21-2.93,3.56c-.65,1.35-1.16,3.55,1.09,4.18,2.25.64,3.41-1,3.28-2.82s-1.44-4.93-1.44-4.93Z"/>
      <path class="cls-4" d="m294.54,361.1s-.63,3.12-.4,4.6c.23,1.48,1.05,3.58,3.27,2.83,2.22-.75,2.24-2.76,1.11-4.18s-3.98-3.25-3.98-3.25Z"/>
      <path class="cls-4" d="m245.03,366.02s2.65-1.75,3.55-2.95c.89-1.2,1.8-3.27-.29-4.31-2.09-1.05-3.54.35-3.75,2.16s.5,5.11.5,5.11Z"/>
      <path class="cls-4" d="m214.13,361.95s-1.64-2.72-2.81-3.66c-1.17-.94-3.19-1.93-4.32.12-1.13,2.05.21,3.55,2,3.83s5.13-.29,5.13-.29Z"/>
    </g>
    <g>
      <path class="cls-4" d="m212.92,257s3.16.33,4.61-.03c1.45-.37,3.46-1.38,2.51-3.52-.95-2.14-2.95-1.97-4.27-.71s-2.86,4.27-2.86,4.27Z"/>
      <path class="cls-4" d="m230.44,236.87s.05,3.18.59,4.58c.54,1.4,1.79,3.27,3.8,2.07,2.01-1.2,1.6-3.17.19-4.32s-4.58-2.32-4.58-2.32Z"/>
      <path class="cls-4" d="m207.21,242.17s-3.02-.98-4.52-.93c-1.5.05-3.68.63-3.19,2.92.49,2.29,2.48,2.55,4.02,1.59s3.69-3.58,3.69-3.58Z"/>
      <path class="cls-4" d="m249.22,245.21s-1.08,2.99-1.07,4.49c0,1.5.52,3.69,2.82,3.28,2.3-.42,2.62-2.4,1.71-3.97s-3.46-3.79-3.46-3.79Z"/>
      <path class="cls-4" d="m336.26,236.44s-2.28,2.21-2.93,3.56c-.65,1.35-1.16,3.55,1.09,4.18,2.25.64,3.41-1,3.28-2.82s-1.44-4.93-1.44-4.93Z"/>
      <path class="cls-4" d="m263.48,239.85s3.1.7,4.59.5c1.49-.19,3.6-.97,2.9-3.21-.7-2.23-2.71-2.3-4.16-1.2s-3.33,3.91-3.33,3.91Z"/>
      <path class="cls-4" d="m282.05,255.25s.17-3.17-.27-4.61c-.44-1.43-1.56-3.39-3.64-2.33-2.09,1.06-1.82,3.05-.49,4.3s4.41,2.64,4.41,2.64Z"/>
      <path class="cls-4" d="m310.49,246.91s3.17.23,4.61-.18c1.44-.41,3.42-1.49,2.4-3.6-1.02-2.11-3.01-1.88-4.29-.58s-2.73,4.35-2.73,4.35Z"/>
      <path class="cls-4" d="m294.79,232.65s-.63,3.12-.4,4.6c.23,1.48,1.05,3.58,3.27,2.83,2.22-.75,2.24-2.76,1.11-4.18s-3.98-3.25-3.98-3.25Z"/>
    </g>
    <path class="cls-18" d="m191.33,97.65c0-1.78-12.08-6.28-19.11-1.73-2.11,1.37-4.99,4.41-6.05,5.56-6.09-1.81-13.05-2.57-15.61-1.24-3.8,1.98-3.73,5.48-3.73,5.48,0,0,.08.04.2.1-4.92-.75-9.23-.72-11.45.43-5.44,2.83-5.35,7.85-5.35,7.85,0,0,.47.16,1.34.49-6.35-.88-11.9-.78-14.79.73-7.24,3.77-7.12,10.44-7.12,10.44,0,0,18.33,2.22,38.67,13.89,20.33,11.67,29.61,29.86,29.61,29.86,0,0,3.5,2.07,6.64-4.29,2.58-5.24.78-11.79-3.01-18.23.22.12,2.71,1.33,4.97-3.24,2.12-4.29.33-9.73-3.04-14.94.69-.05,1.68-.52,2.61-2.41,1.76-3.58-.1-8.33-3.12-12.58.58-.83,1.79-2.69,2.03-3.85,1.07-5.19-2.41-5.22-1.7-8.06.71-2.84,8.02-2.49,8.02-4.26Z"/>
  </g>
  <g id="Layer_4" data-name="Layer 4">
    <path class="cls-8" d="m109.97,244.34l-7.09-.58c2.09.19,5.3.51,8.47.89l-1.38-.31Z"/>
    <path class="cls-8" d="m89.27,246.75l-1.18,11.47s.18-.07.47-.17c1.09-5.89.7-11.3.7-11.3Z"/>
    <path class="cls-8" d="m102.88,243.76c-1.44-.13-2.36-.21-2.36-.21l-11.25,3.2,11.21-3.19,2.39.2Z"/>
    <path class="cls-8" d="m137.77,308.6s-8.52-10.03-7.57-20.72,4.08-21.92,16.35-34c6.73-6.63,8.38-8.87,8.38-8.87,0,0-13.15,5.24-21.63,4.16-8.48-1.07-10.88-2.9-17.1-3.87-1.49-.23-3.16-.45-4.85-.66l12.27,2.79s-2.55,5.13-5.63,13.08c3.3,1.03,5.44,1.81,5.44,1.81,0,0-5.11,22.94.86,34.77,5.97,11.83,16.8,15.61,16.8,15.61l5.05,5.17,4.37,3.27-3.14,13.1s-4.96-5.75-6.29-3.37c-1.32,2.38,2.59,33.56.8,37.8-1.79,4.24-10.25,6.91-14.69,4.08-4.44-2.83-9.2-7.84-9.2-7.84,0,0-1.53,14.15,9.2,15.91,10.73,1.76,17.23-2.33,19.31-5.45,2.08-3.12,1.08-39.25,1.08-39.25l1.29-3.21,2.54-12.04-6.25-4.79-7.42-7.5Z"/>
    <path class="cls-20" d="m111.35,244.65c-3.17-.38-6.38-.7-8.47-.89l-2.39-.2-11.21,3.19s.39,5.41-.7,11.3c1.78-.61,8.52-2.59,16.6-.91,4.79,1,9.43,2.32,12.83,3.38,3.08-7.95,5.63-13.08,5.63-13.08l-12.27-2.79Z"/>
    <path class="cls-8" d="m381.5,372.95c-2.08,3.12-8.59,7.21-19.31,5.45s-9.2-15.91-9.2-15.91c0,0,4.76,5,9.2,7.84s12.77-1.66,13.84-3.98-.18-22.12-.18-22.12l6.75,1.87s.38,22.58.09,23.85-1.18,3-1.18,3Z"/>
    <path class="cls-8" d="m110.5,373.76c-2.08,3.12-8.59,7.21-19.31,5.45s-9.2-15.91-9.2-15.91c0,0,4.76,5,9.2,7.84s12.77-1.66,13.84-3.98.14-19.46.14-19.46l6.63,2.73s.18,19.06-.11,20.33-1.18,3-1.18,3Z"/>
    <path class="cls-8" d="m419.99,347.66s-1.69,2.87-1.64,6.94c.09,6.72,2.27,16.93,2.08,17.72-.3,1.27-1.18,3-1.18,3-2.08,3.12-8.59,7.21-19.31,5.45s-9.2-15.91-9.2-15.91c0,0,4.76,5,9.2,7.84s10.06-.19,11.94-4.02-3.78-25.43.89-31.84,22.47-19,24.56-33.19c5.94-40.4-3.87-50.63-3.87-50.63,0,0,10.98-8.22,14.48-16.16s1.57-29.88,1.57-29.88c0,0,9.94,18.44,2.67,31.97s-12.63,20.19-12.63,20.19c0,0,11.55,22.98,6.19,47.52-4.07,18.65-23.77,36.22-23.77,36.22l-1.98,4.77Z"/>
    <path class="cls-20" d="m124.29,337.65s-15.08.29-25.53-11.13-16.11-18.31-17.67-27.75-1.11-20.1-1.11-20.1c0,0-8.83,16.83-1.41,37.02s24.69,30.93,24.69,30.93c0,0,15.78,8.26,21.03,8.54v-17.51Z"/>
    <path class="cls-20" d="m396.47,342.89s-10.59-7.19-21.37-9.44-15.32-1.84-15.32-1.84v11.34s14.99.62,19.71,1.95,16.91,6.12,16.91,6.12l.08-8.14Z"/>
    <path class="cls-4" d="m353.68,313.79s.53,25.22-28.8,33.21-128.03,9.31-150.22-1.35c-18.05-8.67-24.14-24.5-24.14-24.5,0,0-12.61,30.71,16.55,50.55,0,0,13.06,6.75,20.11,6.94s132.6,0,132.6,0c0,0,20.94-1.62,31.23-16.74,18.55-27.26,2.68-48.11,2.68-48.11Z"/>
    <path class="cls-4" d="m190.99,234.64s-.78,20.32,33.22,20.61c29.11.25,81.19-1.07,102.97-4.65,3.65-.6,2.8-.71,4.5-1.48.4-.18,4.35-.37,4.73-.56,10.97-5.54,15.03-16.05,15.03-16.05,0,0,15.31,7.53,16.26,10.72,0,0-20.81,10.27-26.93,10.29l-3.06-3.33-4.28-.43-7.75,2.47-7.42,5.69-23.03,2.57s-.81-4.97-5.06-4.89-12,6-12,6l-19.09,1.24s1.01-5.74-3.91-6.16-15.18,7.68-15.18,7.68l-16.48,1.39-12.15.25s-.7-4.25-7.65-5.41-15.37,3.58-15.37,3.58l-7.99-2.02s.77-12.34,3.07-15.89l7.55-11.63Z"/>
    <path class="cls-19" d="m183.18,274.83s8.47-9.2,13.58-8.52,9.22,5.55,7.44,14.89-2,11.23-2,11.23h-4.53s8.45-19.24.31-21.58c-5.33-1.53-12.84,11.06-12.84,11.06l-1.97-7.08Z"/>
    <path class="cls-19" d="m210.88,291.77s14.78-6.78,21.78-14,9.11-10.69,13-11.46,6,2.41,6.11,3.66c.06.62.98,4.46,0,7.8s-3.87,6.17-3.62,8.89c.5,5.43,4.07,5.52,4.07,5.52h-6.89s0-6.21,1.83-10.98,3.5-11.59.17-11.23-12.62,10.9-15.23,13.12-12.44,9.34-12.44,9.34l-8.78-.67Z"/>
    <path class="cls-19" d="m293.63,288.53c-6.64-4.99-3.75-20.99-7.97-20.88s-6.44,3.22-8.56,5.78-6.29,10.82-9.25,13.97-5.64,5.03-5.64,5.03l-4.56-1s6.27-4.33,10.19-9.67,7.41-12.93,11.5-15.57,9.09-2.54,10.64,1.13,1.78,18.28,7.44,18.78c5.67.5,9.79-7.44,13.06-12.67s10.55-13.94,16.38-12.72,6.06,7.72,6.83,17.17,17.56,7.39,21.83,4.89,5.78-9.61,5.78-9.61c0,0,3.6,8.68-4.31,13.28s-21.97,5.44-26.69-2.34,2.94-17.22-3.72-19.56c-6.67-2.33-19.25,24.27-27.9,25.03-3.93.35-5.07-1.04-5.07-1.04Z"/>
    <path class="cls-14" d="m119.56,114.26s-3.67,4.63.44,7.63,17.11,4.41,31.56,13.09,23.81,24.6,27.61,25.74,6.53-.9,6.53-.9c0,0-.11,7.3-5.79,9.96,0,0-20.25-25.46-37.01-33.05s-33.24-10.97-33.24-10.97c0,0-.4-4.63,3.13-7.41s6.77-4.1,6.77-4.1Z"/>
    <path class="cls-14" d="m137.55,105.64s-.85,3.58,1.85,5.47,13.04,4.35,21.6,9.57,16.89,18.45,20.44,19.32,5.25-2.66,5.25-2.66c0,0,2.06,7.89-4.04,9.89,0,0-16.25-17.5-28.23-23.34s-24.77-9.53-24.77-9.53c0,0,1.55-5.15,3.74-6.62s4.16-2.09,4.16-2.09Z"/>
    <path class="cls-14" d="m153.04,100.27s-.57,2.41,1.25,3.68,8.77,2.93,14.53,6.44c5.76,3.51,11.36,12.41,13.75,13s3.53-1.79,3.53-1.79c0,0,1.38,5.31-2.72,6.65,0,0-10.93-11.77-18.99-15.7s-16.66-6.41-16.66-6.41c0,0,1.05-3.46,2.51-4.46s2.8-1.41,2.8-1.41Z"/>
    <path class="cls-14" d="m191.1,97.17c-.76.27-11.25-2.24-12.56,2.52s-9.14-1.47-9.14-1.47l-3.23,3.27s7.72,4.83,9.1,5.95,6.63,6.82,6.63,6.82c0,0,4.17-3.03,3.8-5.26s-2.92-4.78-2.37-6.56,5.73-3.44,5.73-3.44l2.03-1.84Z"/>
  </g>
  <g id="Layer_1" data-name="Layer 1">
    <line class="cls-27" x1="124.29" y1="337.65" x2="124.65" y2="358.84"/>
    <path class="cls-27" d="m132.99,359.14s-14.61-3.66-14.97,8.85c-.37,12.52,9.32,12.89,9.32,12.89,0,0,16.91,1.37,19.52-6.27,2.61-7.64-.26-39.67-.26-39.67"/>
    <line class="cls-27" x1="88.09" y1="335.5" x2="88.45" y2="356.69"/>
    <path class="cls-27" d="m96.79,356.99s-14.61-3.66-14.97,8.85c-.37,12.52,9.32,12.89,9.32,12.89,0,0,16.91,1.37,19.52-6.27,1.19-3.47,1.4-11.83,1.14-21.42"/>
    <line class="cls-27" x1="396.17" y1="337.65" x2="396.52" y2="358.84"/>
    <path class="cls-27" d="m189.16,264.18c-2.56-.47-5.03-1.05-7.4-1.75"/>
    <path class="cls-27" d="m239.27,264.76c-9.5.75-18.95,1.3-27.91,1.25"/>
    <path class="cls-27" d="m278.6,261.6c-6.28.34-12.84.87-19.52,1.45"/>
    <path class="cls-27" d="m318.87,257.83c-7.65,1.13-15.58,1.99-23.63,2.65"/>
    <path class="cls-27" d="m404.86,359.14s-14.61-3.66-14.97,8.85c-.37,12.52,9.32,12.89,9.32,12.89,0,0,16.91,1.37,19.52-6.27,1.77-5.17-.19-12.88-.41-19.06-.1-2.95,1.48-10.38,3.67-12.65,6.79-7.03,24.33-25.35,24.94-42.29s1.2-35.6-16.94-50.72c-30.67-25.56-59.53-7.97-66.22-4.61s-14.52,6.09-22.99,8.26"/>
    <line class="cls-27" x1="359.97" y1="335.5" x2="360.32" y2="356.69"/>
    <path class="cls-27" d="m368.66,356.99s-14.61-3.66-14.97,8.85c-.37,12.52,9.32,12.89,9.32,12.89,0,0,19.38,1.8,19.52-6.27.13-7.25.03-26.69.03-26.69"/>
    <rect class="cls-27" x="148" y="292.43" width="211.97" height="86.39" rx="43.2" ry="43.2"/>
    <path class="cls-27" d="m367.71,243.24c-7.88-8.29-19-13.47-31.27-13.47h-125.58c-7.15,0-13.91,1.76-19.87,4.87"/>
    <path class="cls-27" d="m396.52,351.27s-7.78-4.24-17.92-6.5c-10.87-2.42-18.82-1.81-18.82-1.81"/>
    <path class="cls-27" d="m426.04,246.77s15.17-8.67,19.06-21.34,2.11-18.89,3.22-19.78,10.11,19.33,3.33,34.56-12.84,19.19-12.84,19.19"/>
    <path class="cls-27" d="m124.47,355.77s-28.81-7.78-39.59-26.22-12.37-37.44-3.07-54.56,7.3-30.78,7.3-30.78"/>
    <path class="cls-27" d="m148,359.1s4.74,1.86,8.31,1.93"/>
    <path class="cls-27" d="m219.66,292.43s7.31-4.53,13.64-10.44c8.1-7.57,11.71-13.57,14.8-11.67,5,3.08-5.25,16.36-2.42,21.69"/>
    <path class="cls-27" d="m262.85,292.43s6.67-5.58,10.58-13c3.92-7.42,8.42-12.33,12.42-11.83s.14,20.5,10.75,22.06c10.61,1.56,22.28-28,29.83-25s-1.17,13.94,5.33,21.11,25.5,4.67,29.17-3.67-.04-11-.97-11-11.98,12.67-17.09,6.44,4.67-28.32-8.67-28.27-26.11,24.38-34.56,25.94,2-20-11.11-19.11-23.89,29.89-31.22,27.67,9.33-25.89-2.78-27.11-32.06,30.83-41.06,26.5c-9-4.33,5.72-17.72-7.83-21.72s-24.26,9.4-24.26,9.4l3.18,11.93s9.25-14.08,13.64-12.56c8.33,2.9-.53,22.22-.53,22.22"/>
    <path class="cls-27" d="m157.69,125.83c11.15,7.24,33.28,26.43,26.88,39.4-3.14,6.36-6.64,4.29-6.64,4.29,0,0-9.28-18.19-29.61-29.86s-38.67-13.89-38.67-13.89c0,0-.12-6.67,7.12-10.44s29.58,3.14,40.91,10.51Z"/>
    <path class="cls-27" d="m166.32,114.15c8.38,5.44,25.01,19.86,20.2,29.61-2.36,4.78-4.99,3.23-4.99,3.23,0,0-7.93-12.56-23.21-21.33s-28.09-11.55-28.09-11.55c0,0-.09-5.01,5.35-7.85s22.23,2.36,30.75,7.9Z"/>
    <path class="cls-27" d="m172.01,105.75c5.84,3.8,17.44,13.85,14.09,20.65-1.64,3.33-3.48,2.25-3.48,2.25,0,0-5.63-8.39-16.29-14.5s-19.5-8.43-19.5-8.43c0,0-.06-3.5,3.73-5.48s15.51,1.65,21.45,5.51Z"/>
    <path class="cls-27" d="m191.33,97.65c0-1.78-12.08-6.28-19.11-1.73-2.64,1.71-6.47,6.03-6.47,6.03,0,0,5.84,2.64,9.52,5.49s7.4,6.82,7.4,6.82c0,0,2.02-2.75,2.34-4.28,1.07-5.19-2.41-5.22-1.7-8.06s8.02-2.49,8.02-4.26Z"/>
    <g>
      <path class="cls-25" d="m185.71,351.21s-2.28,2.21-2.93,3.56c-.65,1.35-1.16,3.55,1.09,4.18,2.25.64,3.41-1,3.28-2.82s-1.44-4.93-1.44-4.93Z"/>
      <path class="cls-25" d="m205.87,330.74s.05,3.18.59,4.58c.54,1.4,1.79,3.27,3.8,2.07,2.01-1.2,1.6-3.17.19-4.32s-4.58-2.32-4.58-2.32Z"/>
      <path class="cls-25" d="m186.19,328.03s-3.02-.98-4.52-.93c-1.5.05-3.68.63-3.19,2.92.49,2.29,2.48,2.55,4.02,1.59s3.69-3.58,3.69-3.58Z"/>
      <path class="cls-25" d="m211.58,316.89s3.16-.36,4.5-1.04c1.34-.67,3.08-2.1,1.68-3.98-1.4-1.88-3.31-1.28-4.32.23s-1.86,4.79-1.86,4.79Z"/>
      <path class="cls-25" d="m242.93,319.46s.57-3.13.31-4.6c-.26-1.48-1.12-3.56-3.32-2.76-2.2.79-2.19,2.8-1.03,4.2s4.04,3.17,4.04,3.17Z"/>
      <path class="cls-25" d="m231.89,343.09s-1.08,2.99-1.07,4.49c0,1.5.52,3.69,2.82,3.28,2.3-.42,2.62-2.4,1.71-3.97s-3.46-3.79-3.46-3.79Z"/>
      <path class="cls-25" d="m327.06,354.01s-2.28,2.21-2.93,3.56c-.65,1.35-1.16,3.55,1.09,4.18,2.25.64,3.41-1,3.28-2.82s-1.44-4.93-1.44-4.93Z"/>
      <path class="cls-25" d="m264.58,301.68s.63,3.12,1.41,4.39c.78,1.28,2.35,2.89,4.11,1.35,1.76-1.55,1-3.41-.59-4.29s-4.93-1.45-4.93-1.45Z"/>
      <path class="cls-25" d="m249.34,335.49s3.1.7,4.59.5c1.49-.19,3.6-.97,2.9-3.21-.7-2.23-2.71-2.3-4.16-1.2s-3.33,3.91-3.33,3.91Z"/>
      <path class="cls-25" d="m304.65,313.99s-1.9-2.55-3.15-3.37c-1.25-.82-3.36-1.61-4.29.54-.93,2.15.55,3.51,2.36,3.62s5.08-.79,5.08-.79Z"/>
      <path class="cls-25" d="m270.24,345.65s.17-3.17-.27-4.61c-.44-1.43-1.56-3.39-3.64-2.33-2.09,1.06-1.82,3.05-.49,4.3s4.41,2.64,4.41,2.64Z"/>
      <path class="cls-25" d="m297.25,339.98s3.17.23,4.61-.18c1.44-.41,3.42-1.49,2.4-3.6-1.02-2.11-3.01-1.88-4.29-.58s-2.73,4.35-2.73,4.35Z"/>
      <path class="cls-25" d="m331.32,312.46s-2.28,2.21-2.93,3.56c-.65,1.35-1.16,3.55,1.09,4.18,2.25.64,3.41-1,3.28-2.82s-1.44-4.93-1.44-4.93Z"/>
      <path class="cls-25" d="m294.54,361.1s-.63,3.12-.4,4.6c.23,1.48,1.05,3.58,3.27,2.83,2.22-.75,2.24-2.76,1.11-4.18s-3.98-3.25-3.98-3.25Z"/>
      <path class="cls-25" d="m245.03,366.02s2.65-1.75,3.55-2.95c.89-1.2,1.8-3.27-.29-4.31-2.09-1.05-3.54.35-3.75,2.16s.5,5.11.5,5.11Z"/>
      <path class="cls-25" d="m214.13,361.95s-1.64-2.72-2.81-3.66c-1.17-.94-3.19-1.93-4.32.12-1.13,2.05.21,3.55,2,3.83s5.13-.29,5.13-.29Z"/>
    </g>
    <g>
      <path class="cls-25" d="m212.92,257s3.16.33,4.61-.03c1.45-.37,3.46-1.38,2.51-3.52-.95-2.14-2.95-1.97-4.27-.71s-2.86,4.27-2.86,4.27Z"/>
      <path class="cls-25" d="m230.44,236.87s.05,3.18.59,4.58c.54,1.4,1.79,3.27,3.8,2.07,2.01-1.2,1.6-3.17.19-4.32s-4.58-2.32-4.58-2.32Z"/>
      <path class="cls-25" d="m207.21,242.17s-3.02-.98-4.52-.93c-1.5.05-3.68.63-3.19,2.92.49,2.29,2.48,2.55,4.02,1.59s3.69-3.58,3.69-3.58Z"/>
      <path class="cls-25" d="m249.22,245.21s-1.08,2.99-1.07,4.49c0,1.5.52,3.69,2.82,3.28,2.3-.42,2.62-2.4,1.71-3.97s-3.46-3.79-3.46-3.79Z"/>
      <path class="cls-25" d="m336.26,236.44s-2.28,2.21-2.93,3.56c-.65,1.35-1.16,3.55,1.09,4.18,2.25.64,3.41-1,3.28-2.82s-1.44-4.93-1.44-4.93Z"/>
      <path class="cls-25" d="m263.48,239.85s3.1.7,4.59.5c1.49-.19,3.6-.97,2.9-3.21-.7-2.23-2.71-2.3-4.16-1.2s-3.33,3.91-3.33,3.91Z"/>
      <path class="cls-25" d="m282.05,255.25s.17-3.17-.27-4.61c-.44-1.43-1.56-3.39-3.64-2.33-2.09,1.06-1.82,3.05-.49,4.3s4.41,2.64,4.41,2.64Z"/>
      <path class="cls-25" d="m310.49,246.91s3.17.23,4.61-.18c1.44-.41,3.42-1.49,2.4-3.6-1.02-2.11-3.01-1.88-4.29-.58s-2.73,4.35-2.73,4.35Z"/>
      <path class="cls-25" d="m294.79,232.65s-.63,3.12-.4,4.6c.23,1.48,1.05,3.58,3.27,2.83,2.22-.75,2.24-2.76,1.11-4.18s-3.98-3.25-3.98-3.25Z"/>
    </g>
  </g>
  <g id="Layer_2" data-name="Layer 2">
    <g>
      <path class="cls-7" d="m75.29,244.47s4.77,3.23,10.94,2.69c3.09-.27,11.97-3.18,11.97-3.18,0,0,12.65.69,15.85,1.14s4.43,1.04,16.98,3.9,26.9-5.63,26.9-5.63c0,0-16.84,12.38-25.73,31.25-9.66,20.48,10.61,46.92,29.53,51.35,15.16,3.55,29.46-10.95,30.72-19.64,1.17-8.16-1.64-12.7-5.37-19.91-3.52-6.8-9.58-23.31-5.21-35.1,4.12-11.12,14.93-17.66,11.18-32.01-4.07-15.57-10.26-17.96-10.26-17.96,0,0,2.12-10.26.68-18.93s-10.38-19.91-14.35-25.79c-1.72-2.54-17.39-15.85-32.51-23.07-13.37-6.39-26.5-6.94-26.5-6.94,0,0-3.95-3.33-8.44-4.91s-9.06-1.32-12.1-.06c-10.36,4.28-11.94,9.61-11.94,9.61l-11.07-3.49s-.8.08-4.68,1.22c-13.58,4.01-9.38,28.18-9.38,28.18,0,0-3.07,19.18-1.38,23.23s9.44,7.41,9.44,7.41c0,0-4.19,10.83-1.83,13.28s8.47,5.31,8.47,5.31c0,0-3.58,5.72-9.3,10.57-2.83,2.4-6.87,4.05-9.9,5.75-9.02,5.07-15.23-1.08-25.25,8.35-8.73,8.21-3.87,27.71,19.56,31.58,23.43,3.86,30.9-17.29,30.9-17.29l2.08-.92Z"/>
      <polygon class="cls-13" points="79.72 215.24 78.61 217.69 79.46 216.12 79.72 215.24"/>
      <path class="cls-2" d="m79.46,216.12l-.85,1.57-.92,2.02,2.11-.57s1.26-1.52,1.68-2.7c.38-1.07,1.15-3.09,1.29-3.47l-1.74-.62-1.31,2.88-.26.88Z"/>
      <path class="cls-8" d="m85.79,214.05l-2.19,4.3-6.15,1.47,1.16-2.14,1.12-2.46.9-3.03.41.14.05-.1-6.16-2.36s-11.46,35.79-26.48,38.35c-20.15,3.43-24.66-18.06-24.66-18.06,0,0-13.22,11.21,1.34,24.67,14.56,13.46,35.27,7.32,41.39.66,6.13-6.66,19.27-41.45,19.27-41.45Z"/>
      <path class="cls-1" d="m82.8,212.91s-.01.03-.03.07l3.02,1.08-2.99-1.15Z"/>
      <path class="cls-20" d="m79.8,219.15l-2.11.57.92-2.02-1.16,2.14,6.15-1.47,2.19-4.3-3.02-1.08c-.14.38-.91,2.41-1.29,3.47-.42,1.18-1.68,2.7-1.68,2.7Z"/>
      <polygon class="cls-1" points="79.72 215.24 81.03 212.35 80.63 212.21 79.72 215.24"/>
      <path class="cls-6" d="m120.92,221.42c3.22.03,11.71.59,11.71.59,0,0-5.99,4.16-10.12,6.2s-10.24,4.78-10.17,4.65.53-5.11-1.48-8.59c-1.2-2.07-5.7-3.88-5.7-3.88l1.25-.96s11.28,1.97,14.5,2Z"/>
      <path class="cls-6" d="m85.79,214.05l-2.19,4.3s3.1-.52,3.95-.61,5.52-.92,5.52-.92l-7.27-2.77Z"/>
      <path class="cls-12" d="m107.06,234.24s-6.2-5.01-11.26-3.7c-5.06,1.31-12.89,8.61-12.89,8.61,0,0,12.05-2.16,14.8-2.72s9.36-2.19,9.36-2.19Z"/>
      <path class="cls-22" d="m112.41,232.72s1.84-10.23-7.91-13.06l-10.97-2.61s-25.69,1.73-32.58,12.08c-6.89,10.35-.89,13.22,1.62,15.08s11.82,2.83,17.3-3.21c5.48-6.04,11.87-9.84,16.56-10.59,5.01-.81,9.97,4.01,9.97,4.01l6.01-1.7Z"/>
      <path class="cls-16" d="m60.74,187.49s-4.18,10.45-2.01,13.63c1.72,2.51,20.61,11.16,42.46,17.18,9.63,2.65,31.9,3.73,31.9,3.73l8.8-5.68-4.64-2.51s-22.12,5.32-40.5-3.49c-18.38-8.8-28.1-16.24-30.53-21.08l-2.42-.36-3.07-1.43Z"/>
      <path class="cls-21" d="m57.07,164.22s-4.34-6.17-5.24-14.2,1.89-19.26,11.96-21.54c17.47-3.96,31.08,22.08,26.79,30.2s-23.93,11.67-33.51,5.55"/>
      <path class="cls-12" d="m68.96,233.76s-.28-.66.66-1.81c1.81-2.23,6.06-5.99,10.83-8.29,7.23-3.48,5.28-2.56,5.28-2.56,0,0,.02-1.09-.86-1.65s-2.9-.78-2.9-.78c0,0,9.51-1.71,11.55-1.61s9.79,2.33,9.79,2.33l5.11,2.53,3.65,5.21.56,5.64-5.8,2.06s-3.2-3.98-9.4-4.39-11.87,6.41-11.87,6.41c0,0-11.53,10.08-16.04,9.4s-10.98-2.54-11.64-7.46c-.22-1.65,1.46-4.52,1.46-4.52,0,0,2.3,6.09,5.32,7.23,5.91,2.23,9.56-.36,13.57-3.69s10.38-9.02,12.64-9.69c1.08-.32-.02-1.79-1.34-2.97-2.08-1.85-3.63-1.57-3.63-1.57l-7.33,3.07-9.6,7.13Z"/>
      <path class="cls-3" d="m87.95,141.56s-3.24,10.04-16.57,11.33c-10.66,1.03-19.71-5.36-19.71-5.36,0,0-.21,14.68,6.87,17.93,7.08,3.25,16.72,1.7,20.71.34s8.71-2.84,11.16-6.84c3.48-5.68-2.47-17.4-2.47-17.4Z"/>
      <path class="cls-1" d="m61.71,135.24c-.56-1.57,1.94-2.73,5.8-2.83,3.86-.1,10.35,2.13,8.86,6.48s-4.27-1.55-7.73-2.09-6.37.02-6.94-1.55Z"/>
      <path class="cls-13" d="m160.08,223.31c.42-2.95.35-5.25.35-5.25-3.04.28-7.53-.72-11.49-1.98,1.32,1.87,3.02,3.72,5.11,4.98,2.15,1.29,4.23,1.94,6.03,2.25Z"/>
      <path class="cls-13" d="m137.76,214.12l-.5-.27-1.08.1h0s.68.01,1.58.17Z"/>
      <path class="cls-9" d="m59.31,165.64c-.58-.26-1.16-.53-1.75-.84.39.24.98.53,1.75.84Z"/>
      <path class="cls-9" d="m50.85,179.69c.08.15.16.29.24.44-.92-3.84-.12-12.01.52-17.09-1.23,5.69-2.42,13.38-.76,16.66Z"/>
      <path class="cls-9" d="m53.29,156.25s-.32,1.11-.77,2.86c.41.58,1.18,1.64,2.05,2.71-1.45-2.62-1.28-5.57-1.28-5.57Z"/>
      <path class="cls-9" d="m103.26,243.75c4.1.34,11.73,1.12,15.22,2.41,4.9,1.8,14.45,3.54,19.2,3.02.58-.06,1.32-.18,2.15-.34-8.34,1.52-20.21-2.5-23.63-3.53-2.27-.69-8.79-1.25-12.94-1.55Z"/>
      <path class="cls-1" d="m54.57,161.82c.64,1.15,1.58,2.23,2.99,2.99-.88-.54-2-1.77-2.99-2.99Z"/>
      <path class="cls-1" d="m52.22,158.66s-.29,1.79-.61,4.37c.32-1.48.65-2.83.92-3.93-.2-.28-.31-.45-.31-.45Z"/>
      <path class="cls-1" d="m81.35,165.58c.14-.07.87-.46-6.28,1.32-6.24,1.55-12.51.04-15.75-1.26,8.94,3.93,17.62,1.66,22.03-.06Z"/>
      <path class="cls-23" d="m137.76,214.12c-.9-.16-1.58-.17-1.58-.17h0s-13.81,1.33-13.81,1.33c0,0-13.59.51-30.67-6.94-17.09-7.45-25.47-19.06-25.47-19.06,0,0-11.33-2.46-15.14-9.14.09.39.2.73.33,1.03,2.06,4.64,9.11,6.25,9.11,6.25l-1.26,4.94s1.25.71,2.63.82c1.43.11,2.89-.4,2.89-.4,0,0-1.65.67,5.88,8.24,7.97,8.02,24.25,12.11,31.44,14.54,7.19,2.43,19.5,3.09,24.7,2.68,2.85-.22,6.66-1.53,8.47-1.1.92.22-3.06,2.45-4.03,3.74-.61.81,1.71.93,1.71.93,0,0,.29-.08.75-.18,4.76-2.94,8.18-5.24,8.18-5.24l-4.14-2.24Z"/>
      <path class="cls-1" d="m137.76,214.12l4.14,2.24c-.86-1.42-2.76-2-4.14-2.24Z"/>
      <path class="cls-20" d="m66.23,189.28s8.38,11.61,25.47,19.06c17.09,7.45,30.67,6.94,30.67,6.94l13.81-1.33-4.67-1.53s-13.07-2.98-22.53-6.96c-9.46-3.98-16.93-12.59-21.28-21.46s-6.37-18.41-6.37-18.41c0,0,0,0,.02,0-4.41,1.73-13.09,4-22.03.06-.76-.31-1.36-.6-1.75-.84-1.41-.75-2.35-1.84-2.99-2.99-.87-1.07-1.64-2.13-2.05-2.71-.28,1.1-.6,2.44-.92,3.93-.64,5.08-1.44,13.26-.52,17.09,3.81,6.69,15.14,9.14,15.14,9.14Z"/>
      <path class="cls-20" d="m139.2,221.76c.92,1.44-2.29,5.2.4,3.37s3.72-6.43,2.29-8.78c0,0-3.42,2.3-8.18,5.24,1.5-.34,4.78-.94,5.49.17Z"/>
      <path class="cls-1" d="m139.83,248.84s0,0,0,0c8.34-1.52,17.71-4.48,17.71-4.48l6.82-8.96-7.37,9.03s-11.21,3.27-17.17,4.42Z"/>
      <path class="cls-1" d="m100.48,243.56c.64.04,1.62.11,2.78.19-1.66-.14-2.74-.21-2.74-.21,0,0-.01,0-.04.01Z"/>
      <path class="cls-8" d="m190.27,292.43l-4.63-9.02s-7.1-20.55-3.65-30.17c3.45-9.62,12.54-19.77,11.05-33.91-1.5-14.14-10.26-17.96-10.26-17.96,0,0,3.34-6.59,1.19-16.84-1.99-9.43-11.35-23.38-18.31-31.06-18.83-20.76-53.05-27.99-54.58-27.06-.99.61-.65,5.74,5.94,9.63,12.3,7.27,36.83,17.04,47.86,32.92,9.14,13.16.35,41.46.2,41.94-.7,2.18-4.57,9.46-4.99,12.41,2.51.44,4.45.21,5.19.08l7.83-.69,6-11.19s3.6,2.89,4.87,9.2c1.27,6.32-8.4,22.22-11.47,27.71-3.72,6.65-2.32,15.08-3,15.36s-2.42-3.24-3.54-5.06c-1.12-1.83-1.61-4.83-2.01-5.05-.5-.27-3.56,7.45-1.24,25.48,1.63,12.66,14.3,20.77,6.69,29.43-7.62,8.66-17.57,12.48-17.57,12.48,8.62,7.44,17.2,7.49,30.71-.75,16.24-9.9,7.74-27.9,7.74-27.9Z"/>
      <path class="cls-20" d="m154.35,234.82c-6.45,4.01-27.77,8.95-29.44,6.84-1.67-2.11,4.52-2.28,4.38-3.11-.14-.83-12.2.44-12.2.44l-17.44,4.52s.31.02.83.05c.02,0,.04-.01.04-.01,0,0,1.08.07,2.74.21,4.14.3,10.66.87,12.94,1.55,3.43,1.03,15.29,5.05,23.63,3.53,5.96-1.15,17.17-4.42,17.17-4.42l7.37-9.03h0s9.1-13.36,9.1-13.36c-.74.13-10.87,1.72-13.39,1.28-.57,4-2.02,9.2-5.73,11.51Z"/>
      <path class="cls-2" d="m160.08,223.31c-1.8-.31-3.88-.96-6.03-2.25-2.09-1.26-3.79-3.1-5.11-4.98-2.48-3.51-.14-5.98-4.73-8.96-4.59-2.98-6.12-.74-10.62-.73-8.2.02-21.29-1.32-29.77-8.96-13.79-12.43-19.48-33.23-19.48-33.23,0,0-1.11.64-3,1.38-.01,0-.02,0-.02,0,0,0,2.02,9.55,6.37,18.41,4.35,8.86,11.82,17.48,21.28,21.46,9.46,3.98,22.53,6.96,22.53,6.96l4.67,1.53,1.08-.1.5.27c1.38.24,3.28.82,4.14,2.24,1.42,2.35.4,6.96-2.29,8.78-2.69,1.83.52-1.93-.4-3.37-.7-1.11-3.99-.51-5.49-.17-7.27,4.49-17.66,10.47-23.73,11.99-5.55,1.39-13.62,3.38-19.36,4.35-4.63.78-7.61.7-7.61.7l-7.73,5.84s4.25,3.54,11.55,2.63c7-.87,12.82-3.6,12.82-3.6l17.44-4.52s12.06-1.27,12.2-.44c.14.83-6.06,1.01-4.38,3.11s22.99-2.83,29.44-6.84c3.71-2.31,5.17-7.51,5.73-11.51Z"/>
      <path class="cls-16" d="m118.26,176.05c-3.43-7.95-2.52-22.6,7.05-29.41,11.33-8.05,22.71-5.54,27.61-2.44s9.91,7.82,11.81,13.95c0,0,2.72,9.49-.77,17.44-1.59,3.62-6.99,13.6-19.29,15.2-13.55,1.76-22.98-6.79-26.41-14.73Z"/>
      <path class="cls-16" d="m77.62,131.29s8.03-13.57,22.41-9.97c14.37,3.6,18.81,17.47,15.79,27.21-3.02,9.74-12.62,13.78-12.62,13.78l-6.76-2.96-4.9-6.43s-1.35-9.08-5.36-13.54-8.55-8.08-8.55-8.08Z"/>
      <path class="cls-23" d="m152.22,143.99s7.26,5.74,6.28,13.57c-.2,1.64-.6,2.64-1.33,3.49-.95,1.11-2.82,1.68-2.82,1.68,0,0,.02,2.16-.98,4.28s-2.82,4.84-2.82,4.84c0,0-4.23,3.92-9.27,5.8-10.61,3.97-23.3-2.25-23.3-2.25,0,0,2.57,8.39,13.59,13.71,5.09,2.46,7.06,2.25,13.68,1.57s13.5-5.45,17.32-11.89c5.45-9.19,2.53-21.24,2.53-21.24,0,0-1.5-4.71-4.14-6.83s-8.74-6.74-8.74-6.74Z"/>
      <path class="cls-23" d="m107.87,124.69s11.95,12.19,8.17,23.08c-4.98,14.32-16.67,15.46-16.67,15.46l-2.72-3.55-4.3-6.32s10.52-.09,13.65-8.37c0,0,1.49.83,2.9-.48s2.58-4.82,2.54-9.02c-.03-3.58-3.57-10.8-3.57-10.8Z"/>
      <path class="cls-5" d="m149.55,172.07s9.72-14.32-.98-23.98c-12.1-10.92-25.52-1.81-28.07,6.42s.63,15.62,3,17.55c0,0,7.13,6.5,13.9,5.85,6.83-.65,12.15-5.84,12.15-5.84Z"/>
      <path class="cls-5" d="m77.62,131.29s5.64-11.35,16.02-8.31c10.38,3.04,16.19,10,13.06,20.73s-15.17,9.2-15.17,9.2c0,0-1.65-10.21-5.73-14.47s-8.18-7.15-8.18-7.15Z"/>
      <path class="cls-17" d="m148.89,148.38s6.25,7.39,5.47,12.53-4.43,10.6-4.43,10.6c0,0-4.02,4.38-7.63,5.48-3.41,1.05-8.52.91-10.57.31s-7.34-4.31-7.34-4.31c0,0,15.38-1.12,17.28-3.44s3.4-3.14,3.4-3.14c0,0,2.05-.54,2.91-1.36s2.15-3.1,2.67-6.34c.41-2.56-1.75-10.33-1.75-10.33Z"/>
      <path class="cls-17" d="m90.99,147.61s6.14-1.86,7.47-3.51,2.72-.82,3.73-1.18,2.65-3.52,2.5-5.92-1.88-9.26-1.88-9.26c0,0,7.53,7.15,3.53,17.03-4,9.88-14.81,8.32-14.81,8.32l-.55-5.47Z"/>
      <circle class="cls-11" cx="135.74" cy="159.82" r="11.98"/>
      <path class="cls-11" d="m90.62,148.26c3.88.08,7.7-1.99,9.7-5.69,2.83-5.24.95-11.75-4.21-14.54s-11.64-.81-14.48,4.42c-.27.51-.5,1.02-.69,1.55,0,0,3.14,2.8,5.77,6.28,2.63,3.48,3.91,7.98,3.91,7.98Z"/>
      <g>
        <path class="cls-24" d="m130.35,154.76c.69,1.03,2.3-1.18,5.1-1.62,2.62-.42,4.32-.36,3.91-2.13s-2.86-2.12-5.46-.64-4.14,3.51-3.55,4.39Z"/>
        <path class="cls-24" d="m129.52,156.32c-.83-.98-2.48-.34-3.24,2.19s.42,3.37.75,3.35.63-1.13,1.22-2.1,1.8-2.81,1.26-3.44Z"/>
        <path class="cls-24" d="m87.15,132.21c.42.9,1.97-.65,4.25-.66,2.14,0,3.48.25,3.38-1.21s-2.01-2.04-4.26-1.18-3.73,2.28-3.37,3.05Z"/>
        <path class="cls-24" d="m86.19,133.02c-.61-.83-1.98-.4-2.71,1.59s.16,2.73.43,2.73.57-.87,1.09-1.62,1.59-2.16,1.19-2.69Z"/>
      </g>
      <g>
        <path class="cls-27" d="m182.86,201.22s2.71-8.19,1.3-15.69-8.17-30.78-42.2-49.2c-22.9-12.4-31.79-9.75-31.79-9.75"/>
        <g>
          <path class="cls-27" d="m77.13,131.15c5.97-9.69,18.46-13.18,28.48-7.75s14.2,18.7,8.51,29.2c-5.32,9.83-14.77,10.11-14.77,10.11"/>
          <path class="cls-27" d="m77.9,131.68c.15-.33.31-.66.49-.99,3.99-7.36,13.34-10.02,20.89-5.93,7.55,4.09,10.45,13.37,6.46,20.74-2.72,5.03-7.94,7.86-13.39,7.85"/>
          <circle class="cls-27" cx="141.12" cy="166.11" r="24.93"/>
          <circle class="cls-27" cx="136.53" cy="160.72" r="17.27"/>
        </g>
        <path class="cls-11" d="m91.81,151.74c7.5,10.76,17.5,19.62,24.33,30.9,2.33,3.75,4.43,7.6,6.34,11.57.62,1.31-1.26,2.36-2.05,1.12-2.26-3.7-4.57-7.4-6.89-11.05-6.92-11.11-16.58-20.29-22.48-32.12-.24-.45.46-.88.74-.42h0Z"/>
        <path class="cls-11" d="m181.64,208.39c-5.8,11.44-12.76,22.27-20.88,32.23-7.89,9.89-18.29,17.93-24.6,28.85-6.24,10.74-6.01,24.44.49,35.08,7.18,12.3,22.97,25.47,37.83,19.18,11.3-4.44,21.61-16.19,16.13-28.76-4.58-8.5-9.38-16.94-11.05-26.67-1.87-9.79.37-20.29,6.31-28.33,1.81-2.5,3.26-5.19,4.29-8.04,2.08-5.69,2.21-12.05.23-17.79-1.88-5.5-5.73-11.2-11.34-13.14-.63-.2-.97-.88-.76-1.5.2-.62.86-.96,1.48-.77,6.67,2.18,11,8.21,13.3,14.49,3.5,9.53,1.28,20.51-4.74,28.52-5.5,7.49-7.48,16.96-6.08,26.15,1.03,7.69,3.97,15.22,7.68,22.11.65,1.23,1.69,3.03,2.22,4.32,6.64,14.99-7.63,29.59-21.57,32.92-14.93,2.6-28.99-9.28-36.22-21.34-7.06-11.31-7.46-26.3-.74-37.86,6.49-11.37,16.94-19.27,25.04-29.19,8.1-9.72,15.33-20.2,22.44-30.78.1-.16.31-.2.46-.1.14.09.18.27.11.42h0Z"/>
        <path class="cls-11" d="m61.92,169.09c.71,4.08.93,8.19,2.41,12.09,1.32,3.83,3.28,7.42,5.84,10.54,5.43,6.01,12.61,10.51,19.84,14.14,7.36,3.48,15.08,6.65,23.23,7.51,5.89.6,12.6.38,18.58.17,1.36-.05,4.09-.15,5.45-.23.26-.02.52-.06.82.4,0,0,.21-.01.21-.01.63.25,1.26.54,1.86.85,0,0,.79.44.79.44.26.15.54.26.7.63,0,0,.53-.06.54-.06,0,0-.42.96-.42.96-.16.36-.49.49-.74.72l-.81.63c-1.59,1.2-3.3,2.49-4.94,3.6-8.99,6.1-18.72,11.4-29.26,14.31-4.65,1.19-11.22,2.23-15.95,3.2-2.67.49-5.43,1-8.13,1.34-1.01.07-1.23-1.45-.2-1.64.53-.08,1.5-.27,2.03-.36,5.26-1.02,12.59-2.49,17.86-3.56,9.21-1.83,17.84-5.62,25.95-10.31,4.66-2.66,9.11-5.7,13.51-8.76,0,0,.11.9.11.9-.17-.35-.48-.41-.76-.51-.87-.3-1.74-.57-2.64-.74,0,0,.46.08.43.08-10.47,1.4-21.27,2.27-31.69-.05-10.34-2.61-20.1-7.24-28.82-13.36-7.06-4.87-13.11-11.83-15.16-20.28-1.06-4.13-1.75-8.4-1.25-12.66.02-.16.17-.27.34-.25.16.03.23.14.26.28h0Z"/>
        <path class="cls-11" d="m130.17,209.05c2.8,1.85,5.83,3.54,9.16,4.48.98.34,2.03.81,2.84,1.7,2.35,2.54,1.12,6.35-.87,8.61-.08.1-.23.11-.33.03-.08-.07-.1-.18-.07-.27.81-3.05.83-6.25-2.48-7.24-2.67-.79-5.49-1.65-7.74-3.38-.76-.56-1.58-1.13-1.52-2.73,0,0,.03-.69.03-.69,0-.48.58-.78.98-.52h0Z"/>
        <path class="cls-11" d="m58.73,163.77c7.73,3.31,21.93,2.55,28.63-2.86,7.59-7.01-.68-20.18-6.9-25.52-7.31-7.5-19.68-9.99-25.3.73-3.3,6.81-2.88,15.18-.3,22.16.8,2.03,2.06,4.45,3.88,5.49h0Zm-1.43,2.64c-2.73-1.74-3.91-4.43-4.93-7.21-2.46-7.73-2.52-16.58,1.37-23.84,6.5-11.15,19.82-9.63,28.53-1.97,10.38,9.54,17.48,27.89-.68,33.22-5.21,1.63-10.65,2.2-16.09,1.81-2.72-.24-5.48-.61-8.19-2.01h0Z"/>
        <path class="cls-11" d="m66.88,190.35c-6.17-.56-12.51-3.05-16.35-8.11-1.01-1.14-1.4-3.16-1.5-4.56-.27-3.88.23-7.51.79-11.14.61-3.62,1.4-7.18,2.4-10.7.08-.29.39-.46.68-.38.27.08.43.34.39.61-.47,3.58-.89,7.18-1.2,10.76-.26,4.31-.91,8.8.31,12.81,3.13,4.89,9.28,7.27,14.75,8.83,1.14.24.92,1.96-.26,1.88h0Z"/>
        <path class="cls-11" d="m60.92,187.95c-.94,3.57-1.91,7.39-1.88,11.06.03.55.1,1.19.35,1.65,2.1,2.01,5.01,3.13,7.6,4.46,5.14,2.39,10.44,4.56,15.77,6.5,16.13,5.16,32.91,9,49.88,9.24.6.07,1.03.64.9,1.24-.09.42-.43.73-.83.79-.97.16-1.93.14-2.89.15-2.88.01-5.77-.09-8.64-.3-7.67-.51-15.28-1.92-22.75-3.69-7.46-1.84-14.91-3.93-21.94-7.14-6.16-2.81-12.56-5.35-17.92-9.61-.91-.82-1.17-2.15-1.12-3.29.1-2.05.54-3.93,1.03-5.8.5-1.87,1.08-3.69,1.73-5.51.18-.44.84-.24.72.23h0Z"/>
        <path class="cls-11" d="m106.39,235.1c-8.65-7.41-14.64-1.81-21.86,4.08-3.58,2.87-6.98,5.83-11.28,7.78-1.37.59-3.16,1.1-4.79.87-5.56-.7-11.73-4.53-12.18-10.63.03-5.34,3.85-9.19,7.85-12.02,9.39-6.51,21.04-8.15,32.18-8.7.79-.01.82,1.2,0,1.19-12.05.3-28.27,2.9-35.57,13.45-2.28,3.41-2.43,7.55.75,10.35,2.06,1.97,5.03,3.32,7.93,3.49,2.98-.25,5.61-2.2,8.13-3.93,5.61-3.84,10.33-8.95,16.91-11.3,4.75-1.42,9.83.76,13.16,4.19.77.81-.44,2-1.23,1.19h0Z"/>
        <path class="cls-11" d="m67.75,206.75c-6.35,13.48-21.27,20.54-35.73,20.33-7.55,1.28-13.6,9.74-12.05,17.28,2.04,8.55,12.88,15.18,21.01,17.11,6.61,1.1,14.01.36,19.86-2.85,4.61-2.72,8.11-7.4,10.22-12.33.16-.46.68-.69,1.13-.5.42.18.62.67.45,1.09-1.12,2.74-2.59,5.2-4.39,7.49-5.27,7.24-14.78,9.78-23.29,9.43-2.87,0-5.86-.64-8.55-1.66-7.71-3.05-16.54-8.73-18.7-17.29-1.32-6.02,1.36-12.3,5.83-16.33,2.22-2.01,4.97-3.58,8.09-4.08,1.46-.26,2.87-.08,4.33-.21,6.68-.58,13.48-2.97,18.92-6.76,3.26-2.4,6.25-5.29,8.87-8.41.88-1.03,1.77-2.12,2.52-3.2.27-.4.82-.5,1.22-.22.36.25.48.72.29,1.11h0Z"/>
        <path class="cls-11" d="m76.1,243.65c6.46,4.08,14.65,1.45,21.28-.97,3.77-1.27,7.6-2.4,11.51-3.19,3.91-.79,7.85-1.42,11.91-1.36.68.01.74,1.06.03,1.12-7.67,1.18-15.16,3.59-22.44,6.26-7.01,2.82-15.57,5.08-22.52.89-.48-.33-.88-.59-1.38-1.1-1.04-1.09.51-2.66,1.62-1.65h0Z"/>
        <path class="cls-11" d="m98.19,242.95c6.31-.06,12.67-.09,18.91,1.39,3.38,1.02,7.24,2.27,10.62,2.93,3.96.6,8.52.31,12.63.21,5.2-.62,10.72-1.76,15.17-4.57,1.11-.89,2.49.73,1.39,1.67-4.74,3.6-10.6,4.98-16.36,5.8-1.84.1-3.84.19-5.67.22-5.09.32-10.27-.85-15.06-2.43-4.51-1.64-9.47-2.37-14.28-2.7-2.45-.22-4.94-.35-7.39-.47-1.28-.07-1.3-2.01.03-2.05h0Z"/>
        <path class="cls-11" d="m111.93,232.67c-.27-3.18-.96-6.57-3.33-8.71-4.3-3.36-9.95-2.9-15.27-1.55-8.85,2.06-17.21,6.21-24.2,12.01-.54.47-1.34-.33-.82-.87,3.27-3.45,7.05-6.28,11.15-8.66,4.08-2.4,8.58-4.09,13.12-5.39,5.52-1.63,12.25-1.89,17,1.96,2.37,1.81,3.42,4.83,3.56,7.67.08,1.22,0,2.42-.24,3.63-.05.26-.31.43-.57.38-.23-.05-.39-.25-.39-.48h0Z"/>
        <path class="cls-11" d="m81.12,212.3c-.43,2.09-1.18,4.13-2.35,5.91,0,0-1.08,1.8-1.08,1.8-.11.19-.36.25-.55.14-.21-.12-.25-.4-.11-.59.57-1.05,1.49-2.51,1.97-3.57.53-1.23.9-2.57,1.15-3.88.12-.65,1.12-.45.98.2h0Z"/>
        <path class="cls-26" d="m85.67,214.02s-.59,1.31-.98,2.22c-.38.91-1.14,2.13-1.14,2.13"/>
      </g>
    </g>
  </g>
</svg>